<svg id="visual" viewBox="0 0 960 100" preserveAspectRatio="none" xmlns="http://www.w3.org/2000/svg" xmlns:xlink="http://www.w3.org/1999/xlink" version="1.1">
<path d="M0 50L26.7 43.8C53.3 37.7 106.7 25.3 160 29.2C213.3 33 266.7 53 320 53.5C373.3 54 426.7 35 480 30.5C533.3 26 586.7 36 640 39C693.3 42 746.7 38 800 33.2C853.3 28.3 906.7 22.7 933.3 19.8L960 17L960 0L933.3 0C906.7 0 853.3 0 800 0C746.7 0 693.3 0 640 0C586.7 0 533.3 0 480 0C426.7 0 373.3 0 320 0C266.7 0 213.3 0 160 0C106.7 0 53.3 0 26.7 0L0 0Z" fill="#eeeeee">
</path>
</svg>
